{"title":"Love.and.Distrust.2010.DvDRip.H264.Feel-Free ","uid":5932011,"size":832751199,"categoryP":"video","categoryS":"movies","magnet":"?xt=urn:btih:6d4a81a9a645ba01def7271eecf4477a10d526d5&amp;dn=Love.and.Distrust.2010.DvDRip.H264.Feel-Free+&amp;tr=udp%3A%2F%2Ftracker.openbittorrent.com%3A80&amp;tr=udp%3A%2F%2Fopen.demonii.com%3A1337&amp;tr=udp%3A%2F%2Ftracker.coppersurfer.tk%3A6969&amp;tr=udp%3A%2F%2Fexodus.desync.com%3A6969","seeders":2,"leechers":4,"uploader":"neon","files":9,"time":1288813933,"description":"Genre:Drama | Romance\nLanguage:English\nIMDb:http://www.imdb.com/title/tt1686782/\nSource:DVD\n\nGeneral\nComplete name :Love.and.Distrust.2010.DvDRip.H264.Feel-Free\nFormat : MPEG-4\nFormat profile : Base Media / Version 2\nCodec ID : mp42\nFile size : 792 MiB\nDuration : 1h 33mn\nOverall bit rate : 1 180 Kbps\nVideo #1\nCodec ID : avc1\nCodec ID/Info : Advanced Video Coding\nDuration : 1h 33mn\nBit rate mode : Variable\nBit rate : 700 Kbps\nWidth : 720 pixels\nHeight : 384 pixels\nDisplay aspect ratio : 1.875\nFrame rate mode : Constant\nFrame rate : 23.976 fps\nResolution : 24 bits\nColorimetry : 4:2:0\nScan type : Progressive\nBits/(Pixel*Frame) : 0.106\nStream size : 469 MiB (59%)\nAudio #2\nID : 2\nFormat : AAC\nFormat/Info : Advanced Audio Codec\nFormat version : Version 4\nFormat profile : LC\nFormat settings, SBR : No\nCodec ID : 40\nDuration : 1h 33mn\nBit rate mode : Constant\nBit rate : 477 Kbps\nNominal bit rate : 480 Kbps\nChannel(s) : 6 channels\nChannel positions : Front: L C R, Rear: L R, LFE\nSampling rate : 48.0 KHz\nResolution : 16 bits\nStream size : 320 MiB (40%)\n\nPlot:\nTale of the passions and perils of love in all its forms. Split into five stories that focus on the lives of a group of beautiful yet troubled twenty-somethings, this film explores the dark heart of romance, the secrets we can never tell and the heartache it can cause. Battling temptation and the pull of seduction, the fight for love can never be easy. \n\n","torrent":{"xt":"urn:btih:6d4a81a9a645ba01def7271eecf4477a10d526d5","amp;dn":"Love.and.Distrust.2010.DvDRip.H264.Feel-Free+","amp;tr":["udp%3A%2F%2Ftracker.openbittorrent.com%3A80","udp%3A%2F%2Fopen.demonii.com%3A1337","udp%3A%2F%2Ftracker.coppersurfer.tk%3A6969","udp%3A%2F%2Fexodus.desync.com%3A6969"],"infoHash":"6d4a81a9a645ba01def7271eecf4477a10d526d5","infoHashBuffer":{"type":"Buffer","data":[109,74,129,169,166,69,186,1,222,247,39,30,236,244,71,122,16,213,38,213]},"announce":[],"urlList":[]}}